<svg height="496pt" viewBox="0 0 496 496" width="496pt" xmlns="http://www.w3.org/2000/svg"><path d="m392 472v16h-160v-16c0-8.800781 7.199219-16 16-16h128c8.800781 0 16 7.199219 16 16zm0 0" fill="#838f9b"/><path d="m248 424h128v32h-128zm0 0" fill="#969faa"/><path d="m488 376v16c0 17.679688-14.320312 32-32 32h-288c-17.679688 0-32-14.320312-32-32v-16h104l16-16h112l16 16zm0 0" fill="#aab2bd"/><path d="m136 344v32h104l16-16h112l16 16h104v-160c0-17.679688-14.320312-32-32-32h-261.519531c-13.121094 37.28125-48.640625 64-90.480469 64zm0 0" fill="#69d6f4"/><path d="m456 184v48c0 17.679688-14.320312 32-32 32h-128c-17.679688 0-32-14.320312-32-32v-192c0-17.679688 14.320312-32 32-32h128c17.679688 0 32 14.320312 32 32zm0 0" fill="#ccd1d9"/><path d="m416 232h-112c-4.414062 0-8-3.585938-8-8v-80c0-4.414062 3.585938-8 8-8h112c4.414062 0 8 3.585938 8 8v80c0 4.414062-3.585938 8-8 8zm0 0" fill="#ffeaa7"/><path d="m296 40h128v64h-128zm0 0" fill="#69d6f4"/><path d="m184 344h-160v-48h192v48zm0 0" fill="#fcd770"/><path d="m168 296h-160v-48h192v48zm0 0" fill="#ffeaa7"/><path d="m200 152c0 11.199219-1.921875 22-5.519531 32-13.121094 37.28125-48.640625 64-90.480469 64-53.039062 0-96-42.960938-96-96s42.960938-96 96-96 96 42.960938 96 96zm0 0" fill="#fcd770"/><path d="m194.496094 176h69.503906v16h-69.503906zm0 0"/><path d="m456 432h-288c-22.054688 0-40-17.945312-40-40v-48h16v48c0 13.230469 10.769531 24 24 24h288c13.230469 0 24-10.769531 24-24v-176c0-13.230469-10.769531-24-24-24v-16c22.054688 0 40 17.945312 40 40v176c0 22.054688-17.945312 40-40 40zm0 0"/><path d="m240 424h16v32h-16zm0 0"/><path d="m368 424h16v32h-16zm0 0"/><path d="m488 384h-107.3125l-16-16h-105.375l-16 16h-107.3125v-16h100.6875l16-16h118.625l16 16h100.6875zm0 0"/><path d="m264 384h16v16h-16zm0 0"/><path d="m296 384h32v16h-32zm0 0"/><path d="m344 384h16v16h-16zm0 0"/><path d="m400 496h-176v-24c0-13.230469 10.769531-24 24-24h128c13.230469 0 24 10.769531 24 24zm-160-16h144v-8c0-4.40625-3.59375-8-8-8h-128c-4.40625 0-8 3.59375-8 8zm0 0"/><path d="m208 240h-48.824219c29.273438-18.414062 48.824219-50.929688 48.824219-88 0-57.34375-46.65625-104-104-104s-104 46.65625-104 104c0 37.070312 19.550781 69.585938 48.824219 88h-48.824219v64h16v48h208v-64h-16zm-192-88c0-48.519531 39.480469-88 88-88s88 39.480469 88 88-39.480469 88-88 88-88-39.480469-88-88zm0 104h176v32h-16v-16h-16v16h-16v-16h-16v16h-16v-16h-16v16h-16v-16h-16v16h-16v-16h-16v16h-16zm192 80h-16v-16h-16v16h-16v-16h-16v16h-16v-16h-16v16h-16v-16h-16v16h-16v-16h-16v16h-16v-32h176zm0 0"/><path d="m104 112c8.824219 0 16 7.175781 16 16h16c0-14.863281-10.238281-27.289062-24-30.863281v-17.136719h-16v16h-24v32c0 17.648438 14.351562 32 32 32 8.824219 0 16 7.175781 16 16v16h-16c-8.824219 0-16-7.175781-16-16h-16c0 14.863281 10.238281 27.289062 24 30.863281v17.136719h16v-16h24v-32c0-17.648438-14.351562-32-32-32-8.824219 0-16-7.175781-16-16v-16zm0 0"/><path d="m424 0h-128c-22.054688 0-40 17.945312-40 40v192c0 22.054688 17.945312 40 40 40h128c22.054688 0 40-17.945312 40-40v-192c0-22.054688-17.945312-40-40-40zm24 232c0 13.230469-10.769531 24-24 24h-128c-13.230469 0-24-10.769531-24-24v-192c0-13.230469 10.769531-24 24-24h128c13.230469 0 24 10.769531 24 24zm0 0"/><path d="m288 112h144v-80h-144zm16-64h112v48h-112zm0 0"/><path d="m416 128h-112c-8.824219 0-16 7.175781-16 16v80c0 8.824219 7.175781 16 16 16h112c8.824219 0 16-7.175781 16-16v-80c0-8.824219-7.175781-16-16-16zm0 32h-16v-16h16zm-80 16h16v16h-16zm-16 16h-16v-16h16zm32-32h-16v-16h16zm16-16h16v16h-16zm-16 64v16h-16v-16zm16 0h16v16h-16zm0-16v-16h16v16zm32-16h16.007812v16h-16.007812zm-80-32v16h-16v-16zm-16 64h16v16h-16zm96 16v-16h16.007812v16zm0 0"/><path d="m240 288h16v16h-16zm0 0"/><path d="m272 288h192v16h-192zm0 0"/><path d="m240 320h192v16h-192zm0 0"/><path d="m448 320h16v16h-16zm0 0"/><path d="m384 64h16v16h-16zm0 0"/><path d="m352 64h16v16h-16zm0 0"/></svg>