<svg height="498pt" viewBox="-1 0 498 498.816" width="498pt" xmlns="http://www.w3.org/2000/svg"><path d="m447.761719 106.734375h.636719c22.082031 0 40 17.921875 40 40 0 22.082031-17.917969 40-40 40h-121.359376c-.558593-44.320313-13.277343-87.277344-36.398437-124.398437-4-6.558594-8.480469-12.960938-13.121094-19.121094 11.28125-10.238282 26.402344-16.480469 42.878907-16.480469 28.402343 0 52.402343 18.480469 60.800781 44 5.839843-2.558594 12.402343-4 19.199219-4 23.839843 0 43.523437 17.28125 47.363281 40zm0 0" fill="#e6e9ed"/><path d="m50.398438 154.816406v-.082031c-1.277344-5.117187-2-10.476563-2-16 0-35.359375 28.640624-64 64-64 28.402343 0 52.402343 18.480469 60.800781 44 2.160156-.957031 4.402343-1.757813 6.722656-2.398437-9.523437 29.679687-13.28125 61.199218-10.800781 93.039062l2 25.359375h-122.722656c-22.078126 0-40-17.917969-40-40 0-22.078125 17.921874-40 40-40 .640624 0 1.363281 0 2 .082031zm0 0" fill="#e6e9ed"/><path d="m327.039062 186.734375c-.558593-44.320313-13.277343-87.277344-36.398437-124.398437h-.082031c-12.398438 7.839843-27.039063 12.480468-42.796875 12.480468-15.761719 0-30.402344-4.640625-42.800781-12.480468h-.082032c-10.558594 16.960937-18.878906 35.121093-24.957031 54-9.523437 29.679687-13.28125 61.199218-10.800781 93.039062l2 25.359375 5.199218 65.679687c.398438.640626.71875 1.203126 1.039063 1.84375 4.160156 7.679688 6.402344 16.398438 6.402344 25.4375v54.402344c19.359375-10.722656 32-31.28125 32-54.402344v-28.878906c0-3.28125.160156-6.480468.558593-9.601562 1.121094-9.199219 3.839844-18 7.917969-26.160156 5.441407-10.957032 13.441407-20.71875 23.523438-28.238282 17.597656 13.199219 28.796875 32.878906 31.4375 54.398438.402343 3.121094.5625 6.320312.5625 9.601562v28.878906c0 23.121094 12.636719 43.679688 32 54.402344v-54.402344c0-9.757812 2.636719-19.121093 7.4375-27.28125l7.199219-91.039062c.480468-6.398438.722656-12.800781.722656-19.117188 0-1.203124 0-2.320312-.082032-3.523437zm0 0" fill="#fcd770"/><path d="m290.640625 62.335938h-.082031c-12.398438 7.839843-27.039063 12.480468-42.796875 12.480468-15.761719 0-30.402344-4.640625-42.800781-12.480468h-.082032c11.679688-18.878907 26.082032-36.238282 42.882813-51.519532 10.957031 10 20.878906 20.800782 29.757812 32.398438 4.640625 6.160156 9.121094 12.5625 13.121094 19.121094zm0 0" fill="#ff826e"/><path d="m359.761719 338.816406v65.199219c-8.242188-7.601563-18.5625-12.960937-29.921875-15.199219-6.480469-1.359375-12.558594-3.601562-18.078125-6.71875v-43.28125zm0 0" fill="#ffeaa7"/><path d="m183.761719 338.816406v43.28125c-5.523438 3.117188-11.601563 5.359375-18.082031 6.71875-9.441407 1.839844-18.160157 5.917969-25.601563 11.597656-1.519531 1.121094-2.957031 2.320313-4.316406 3.601563v-65.199219zm0 0" fill="#ffeaa7"/><path d="m311.761719 442.816406 16-16h48l-2.402344-4.71875c-3.4375-6.882812-8-12.960937-13.597656-18.082031-8.242188-7.601563-18.5625-12.960937-29.921875-15.199219-6.480469-1.359375-12.558594-3.601562-18.078125-6.71875-19.363281-10.722656-32-31.28125-32-54.402344v-28.878906c0-3.28125-.160157-6.480468-.5625-9.601562-8.960938 6.082031-19.839844 9.601562-31.4375 9.601562-11.601563 0-22.480469-3.519531-31.441407-9.601562-.398437 3.121094-.558593 6.320312-.558593 9.601562v28.878906c0 23.121094-12.640625 43.679688-32 54.402344-5.523438 3.117188-11.601563 5.359375-18.082031 6.71875-9.441407 1.839844-18.160157 5.917969-25.601563 11.597656-1.519531 1.121094-2.957031 2.320313-4.316406 3.601563-5.601563 5.121094-10.160157 11.199219-13.601563 18.082031l-2.398437 4.71875h48l16 16zm0 0" fill="#e6e9ed"/><g fill="#ff826e"><path d="m311.761719 442.816406-8 48h-32l-8-48zm0 0"/><path d="m231.761719 442.816406-8 48h-32l-8-48zm0 0"/><path d="m271.761719 418.816406c0 13.253906-10.746094 24-24 24-13.257813 0-24-10.746094-24-24s10.742187-24 24-24c13.253906 0 24 10.746094 24 24zm0 0"/><path d="m359.761719 327.695312v11.121094h-48v-11.121094c0-9.757812 2.636719-19.121093 7.4375-27.28125 4.082031-6.957031 9.679687-13.039062 16.5625-17.597656 7.519531 4.960938 13.4375 11.679688 17.597656 19.441406 4.160156 7.679688 6.402344 16.398438 6.402344 25.4375zm0 0"/><path d="m183.761719 327.695312v11.121094h-48v-11.121094c0-18.078124 9.039062-34.878906 24-44.878906 6.878906 4.558594 12.476562 10.640625 16.558593 17.597656.398438.640626.71875 1.203126 1.039063 1.84375 4.160156 7.679688 6.402344 16.398438 6.402344 25.4375zm0 0"/><path d="m247.761719 234.816406c17.597656 13.199219 28.796875 32.878906 31.4375 54.398438-8.960938 6.082031-19.839844 9.601562-31.4375 9.601562-11.601563 0-22.480469-3.519531-31.441407-9.601562 1.121094-9.199219 3.839844-18 7.917969-26.160156 5.441407-10.957032 13.441407-20.71875 23.523438-28.238282zm0 0"/></g><path d="m247.761719 130.816406c4.414062 0 8 3.589844 8 8h16c0-10.417968-6.714844-19.214844-16-22.527344v-17.472656h-16v16h-16v24c0 13.230469 10.765625 24 24 24 4.414062 0 8 3.589844 8 8v8h-8c-4.417969 0-8-3.59375-8-8h-16c0 10.414063 6.710937 19.214844 16 22.527344v17.472656h16v-16h16v-24c0-13.230468-10.769531-24-24-24-4.417969 0-8-3.59375-8-8v-8zm0 0"/><path d="m454.152344 99.089844c-6.832032-23.738282-28.457032-40.378906-53.746094-40.378906-4.964844 0-9.855469.648437-14.597656 1.9375-11.625-25.382813-36.976563-41.9375-65.402344-41.9375-15.0625 0-29.574219 4.738281-41.710938 13.378906-7.816406-9.632813-16.296874-18.769532-25.550781-27.195313l-5.382812-4.894531-5.386719 4.894531c-30.199219 27.457031-52.832031 61.960938-66.605469 99.722657-12.371093-23.082032-36.480469-37.914063-63.363281-37.914063-39.703125 0-72 32.304687-72 72 0 2.898437.203125 5.777344.546875 8.640625-22.929687 3.601562-40.546875 23.433594-40.546875 47.359375 0 26.472656 21.53125 48 48 48h115.320312l2.777344 35.199219c-.777344-.574219-1.496094-1.214844-2.304687-1.75l-4.4375-2.953125-4.441407 2.960937c-17.257812 11.503906-27.558593 30.761719-27.558593 51.496094v73.015625c-5.074219 5.175781-9.441407 11.128906-12.792969 17.824219l-8.152344 16.320312h57.632813l11.839843 11.839844 8.695313 52.160156h45.542969l8-48h18.449218l8 48h45.542969l8.695313-52.160156 11.839844-11.839844h57.632812l-8.160156-16.3125c-3.328125-6.703125-7.695313-12.648437-12.765625-17.824218v-73.015626c0-20.742187-10.304688-39.992187-27.5625-51.503906l-4.4375-2.960937-4.441407 2.960937c-.808593.542969-1.527343 1.175782-2.304687 1.75l5.359375-67.910156c.402344-5.105469.617188-10.199219.703125-15.296875h113.328125c26.472656 0 48-21.527344 48-48 0-24.511719-18.484375-44.757813-42.253906-47.613281zm-135.726563 109.652344-7.042969 89.195312c-4.910156 8.972656-7.621093 19.140625-7.621093 29.71875v38.238281c-9.867188-9.917969-16-23.429687-16-38.183593v-28.894532c0-27.542968-13.160157-53.863281-35.195313-70.402344l-4.804687-3.597656-4.808594 3.597656c-22.03125 16.539063-35.191406 42.859376-35.191406 70.402344v28.902344c0 14.753906-6.136719 28.257812-16 38.183594v-38.238282c0-10.574218-2.714844-20.753906-7.625-29.71875l-7.039063-89.191406c-3.753906-47.496094 7.4375-94.992187 30.871094-135.730468 12.34375 6.3125 25.894531 9.792968 39.792969 9.792968 13.894531 0 27.445312-3.480468 39.789062-9.792968 23.433594 40.738281 34.625 88.222656 30.875 135.71875zm33.335938 179.769531c-6.265625-3.464844-13.066407-6.070313-20.320313-7.519531-4.121094-.824219-7.976562-2.257813-11.679687-3.945313v-30.230469h32zm-81.410157-103.488281c-13.953124 7.375-31.222656 7.375-45.175781 0 3.015625-15.289063 10.914063-29.390626 22.59375-39.863282 11.664063 10.472656 19.558594 24.566406 22.582031 39.863282zm-94.589843 92.023437c-3.707031 1.6875-7.5625 3.121094-11.683594 3.945313-7.253906 1.449218-14.054687 4.054687-20.316406 7.519531v-41.695313h32zm72-355.253906c11.804687 11.445312 22.246093 24.109375 31.300781 37.648437-19.613281 9.414063-42.992188 9.414063-62.605469 0 9.054688-13.539062 19.496094-26.203125 31.304688-37.648437zm-199.355469 204.917969c-17.644531 0-32-14.351563-32-32 0-17.648438 14.355469-32 32-32 17.648438 0 32 14.351562 32 32h16c0-23.464844-16.933594-43.015626-39.222656-47.160157-.464844-2.917969-.777344-5.863281-.777344-8.839843 0-30.878907 25.128906-56 56-56 24.242188 0 45.609375 15.488281 53.167969 38.527343l2.601562 7.929688c-6.648437 26.199219-9.199219 53.503906-7.039062 80.839843l1.320312 16.703126zm111.355469 66.121093c10.101562 8.664063 16 21.320313 16 34.824219v3.160156h-32v-3.160156c0-13.503906 5.894531-26.160156 16-34.824219zm57.222656 189.984375h-18.457031l-5.328125-32h29.113281zm14.777344-64c0-8.824218 7.175781-16 16-16s16 7.175782 16 16c0 8.824219-7.175781 16-16 16s-16-7.175781-16-16zm46.773437 64-5.328125-32h29.113281l-5.328124 32zm45.914063-64-16 16h-33.136719c2.75-4.726562 4.449219-10.144531 4.449219-16 0-17.648437-14.355469-32-32-32-17.648438 0-32 14.351563-32 32 0 5.855469 1.695312 11.273438 4.445312 16h-33.136719l-16-16h-37.726562c7.953125-11.433594 19.945312-19.34375 33.871094-22.136718 32.761718-6.542969 56.546875-35.550782 56.546875-68.960938v-25.742188c7.589843 3.078126 15.671875 4.839844 24 4.839844s16.40625-1.761718 24-4.839844v25.742188c0 33.410156 23.78125 62.417969 56.535156 68.960938 13.925781 2.792968 25.917969 10.703124 33.871094 22.136718zm11.3125-125.984375c10.101562 8.664063 16 21.320313 16 34.824219v3.160156h-32v-3.160156c0-13.503906 5.894531-26.160156 16-34.824219zm112.644531-114.121093h-113.621094c-2.328125-48.078126-18.625-94.765626-46.402344-133.886719 9.351563-6.527344 20.472657-10.113281 32.015626-10.113281 24.242187 0 45.609374 15.488281 53.167968 38.527343l2.746094 8.363281 8.070312-3.53125c5.097657-2.230468 10.480469-3.359374 16.015626-3.359374 16.769531 0 31.234374 10.273437 37.136718 25.289062-21.238281 4.945312-37.136718 23.984375-37.136718 46.710938h16c0-17.648438 14.355468-32 32-32 17.648437 0 32 14.351562 32 32 0 17.648437-14.34375 32-31.992188 32zm0 0"/><path d="m439.761719 242.816406h16v16h-16zm0 0"/><path d="m439.761719 274.816406h16v16h-16zm0 0"/><path d="m455.761719 258.816406h16v16h-16zm0 0"/><path d="m423.761719 258.816406h16v16h-16zm0 0"/><path d="m31.761719 434.816406h16v16h-16zm0 0"/><path d="m31.761719 466.816406h16v16h-16zm0 0"/><path d="m47.761719 450.816406h16v16h-16zm0 0"/><path d="m15.761719 450.816406h16v16h-16zm0 0"/><path d="m399.761719 338.816406h16v16h-16zm0 0"/><path d="m399.761719 370.816406h16v16h-16zm0 0"/><path d="m415.761719 354.816406h16v16h-16zm0 0"/><path d="m383.761719 354.816406h16v16h-16zm0 0"/><path d="m431.761719 410.816406h16v16h-16zm0 0"/><path d="m431.761719 442.816406h16v16h-16zm0 0"/><path d="m447.761719 426.816406h16v16h-16zm0 0"/><path d="m415.761719 426.816406h16v16h-16zm0 0"/><path d="m31.761719 258.816406h16v16h-16zm0 0"/><path d="m31.761719 290.816406h16v16h-16zm0 0"/><path d="m47.761719 274.816406h16v16h-16zm0 0"/><path d="m15.761719 274.816406h16v16h-16zm0 0"/><path d="m79.761719 338.816406h16v16h-16zm0 0"/><path d="m79.761719 370.816406h16v16h-16zm0 0"/><path d="m95.761719 354.816406h16v16h-16zm0 0"/><path d="m63.761719 354.816406h16v16h-16zm0 0"/></svg>