<svg height="496pt" viewBox="0 0 496 496" width="496pt" xmlns="http://www.w3.org/2000/svg"><path d="m40 328h64v160h-64zm0 0" fill="#e6e9ed"/><path d="m136 472v16h-32v-160h32zm0 0" fill="#cf9e76"/><path d="m374.558594 368 1.441406-8c0-13.28125-10.71875-24-24-24h-37.28125c-3.679688 0-7.359375-.238281-10.957031-.71875-14.722657-16.882812-23.761719-39.042969-23.761719-63.28125 0-53.039062 42.960938-96 96-96s96 42.960938 96 96c0 14.398438-3.121094 28-8.800781 40.238281-15.199219 32.882813-48.480469 55.761719-87.199219 55.761719-.480469 0-.878906 0-1.359375 0zm0 0" fill="#fcd770"/><path d="m352 336c13.28125 0 24 10.71875 24 24l-1.441406 8h1.441406c38.71875 0 72-22.878906 87.199219-55.761719h.082031c13.917969 1.761719 24.71875 13.601563 24.71875 28.082031 0 7.441407-2.960938 14.640626-8.320312 20l-48.238282 48.238282c-15.042968 15.042968-35.363281 23.441406-56.5625 23.441406h-157.277344c-16.640624 0-32.882812 5.199219-46.480468 14.878906l-35.121094 25.121094v-120l32.160156-22.960938c15.519532-11.117187 34.078125-17.039062 53.121094-17.039062 12.320312 0 24.558594 2.480469 35.917969 7.359375l21.601562 9.28125c8 3.4375 16.398438 5.679687 24.960938 6.640625 3.597656.480469 7.277343.71875 10.957031.71875zm0 0" fill="#f0d0b4"/><path d="m184 248c0 44.183594-35.816406 80-80 80s-80-35.816406-80-80 35.816406-80 80-80 80 35.816406 80 80zm0 0" fill="#fcd770"/><g fill="#b4dd7f"><path d="m152 88h48c0 13.28125-5.359375 25.28125-14.078125 33.921875-8.640625 8.71875-20.640625 14.078125-33.921875 14.078125h-48c0-13.28125 5.359375-25.28125 14.078125-33.921875 8.640625-8.71875 20.640625-14.078125 33.921875-14.078125zm0 0"/><path d="m152 8h48c0 13.28125-5.359375 25.28125-14.078125 33.921875-8.640625 8.71875-20.640625 14.078125-33.921875 14.078125h-48c0-13.28125 5.359375-25.28125 14.078125-33.921875 8.640625-8.71875 20.640625-14.078125 33.921875-14.078125zm0 0"/><path d="m104 80h-48c-13.28125 0-25.28125-5.359375-33.921875-14.078125-8.71875-8.640625-14.078125-20.640625-14.078125-33.921875h48c13.28125 0 25.28125 5.359375 33.921875 14.078125 8.71875 8.640625 14.078125 20.640625 14.078125 33.921875zm0 0"/><path d="m104 144h-32c-8.800781 0-16.800781-3.601562-22.640625-9.359375-5.757813-5.839844-9.359375-13.839844-9.359375-22.640625h32c8.800781 0 16.800781 3.601562 22.640625 9.359375 5.757813 5.839844 9.359375 13.839844 9.359375 22.640625zm0 0"/><path d="m376 144h-32c-8.800781 0-16.800781-3.601562-22.640625-9.359375-5.757813-5.839844-9.359375-13.839844-9.359375-22.640625h32c8.800781 0 16.800781 3.601562 22.640625 9.359375 5.757813 5.839844 9.359375 13.839844 9.359375 22.640625zm0 0"/><path d="m408 88h32c0 8.800781-3.601562 16.800781-9.359375 22.640625-5.839844 5.757813-13.839844 9.359375-22.640625 9.359375h-32c0-8.800781 3.601562-16.800781 9.359375-22.640625 5.839844-5.757813 13.839844-9.359375 22.640625-9.359375zm0 0"/><path d="m424 8h48c0 13.28125-5.359375 25.28125-14.078125 33.921875-8.640625 8.71875-20.640625 14.078125-33.921875 14.078125h-48c0-13.28125 5.359375-25.28125 14.078125-33.921875 8.640625-8.71875 20.640625-14.078125 33.921875-14.078125zm0 0"/><path d="m376 80h-48c-13.28125 0-25.28125-5.359375-33.921875-14.078125-8.71875-8.640625-14.078125-20.640625-14.078125-33.921875h48c13.28125 0 25.28125 5.359375 33.921875 14.078125 8.71875 8.640625 14.078125 20.640625 14.078125 33.921875zm0 0"/></g><path d="m432 264h16v16h-16zm0 0"/><path d="m304 264h16v16h-16zm0 0"/><path d="m104 224c4.40625 0 8 3.59375 8 8h16c0-10.414062-6.710938-19.214844-16-22.527344v-17.472656h-16v16h-16v24c0 13.230469 10.769531 24 24 24 4.40625 0 8 3.59375 8 8v8h-8c-4.40625 0-8-3.59375-8-8h-16c0 10.414062 6.710938 19.214844 16 22.527344v17.472656h16v-16h16v-24c0-13.230469-10.769531-24-24-24-4.40625 0-8-3.59375-8-8v-8zm0 0"/><path d="m144 240h16v16h-16zm0 0"/><path d="m48 240h16v16h-16zm0 0"/><path d="m473.808594 307c3.933594-10.953125 6.191406-22.703125 6.191406-35 0-54.648438-42.390625-99.488281-96-103.59375v-40.40625h24c22.054688 0 40-17.945312 40-40v-8h-40c-9.039062 0-17.296875 3.128906-24 8.207031v-24.207031h40c30.878906 0 56-25.121094 56-56v-8h-56c-26.296875 0-48.351562 18.238281-54.335938 42.710938-10.265624-11.453126-25.113281-18.710938-41.664062-18.710938h-56v8c0 30.878906 25.121094 56 56 56h40v24.207031c-6.703125-5.078125-14.960938-8.207031-24-8.207031h-40v8c0 22.054688 17.945312 40 40 40h24v16.40625c-53.609375 4.105469-96 48.945312-96 103.59375 0 17.808594 4.648438 35.128906 13.167969 50.464844-1.078125-.410156-2.175781-.746094-3.238281-1.199219l-21.546876-9.234375c-12.429687-5.328125-25.597656-8.03125-39.117187-8.03125-20.824219 0-40.777344 6.398438-57.714844 18.496094l-19.550781 13.960937v-10.167969c28.449219-14.601562 48-44.167968 48-78.289062 0-45.824219-35.214844-83.535156-80-87.59375v-16.40625h40c30.878906 0 56-25.121094 56-56v-8h-56c-15.664062 0-29.824219 6.480469-40 16.878906v-32.878906h40c30.878906 0 56-25.121094 56-56v-8h-56c-26.296875 0-48.351562 18.238281-54.335938 42.710938-10.265624-11.453126-25.113281-18.710938-41.664062-18.710938h-56v8c0 30.878906 25.121094 56 56 56h40v24.207031c-6.703125-5.078125-14.960938-8.207031-24-8.207031h-40v8c0 22.054688 17.945312 40 40 40h24v8.40625c-44.785156 4.058594-80 41.769531-80 87.59375 0 29.761719 14.886719 56.0625 37.558594 72h-21.558594v176h112v-19.878906l31.785156-22.707032c12.285156-8.773437 26.757813-13.414062 41.855469-13.414062h157.222656c23.503907 0 45.601563-9.152344 62.226563-25.777344l48.285156-48.285156c6.847656-6.847656 10.625-15.960938 10.625-25.648438 0-14.847656-9.089844-27.730468-22.191406-33.289062zm-65.808594-211h22.632812c-3.304687 9.3125-12.199218 16-22.632812 16h-22.632812c3.304687-9.3125 12.199218-16 22.632812-16zm16-80h39.191406c-3.710937 18.230469-19.871094 32-39.191406 32h-39.191406c3.710937-18.230469 19.871094-32 39.191406-32zm-96 56c-19.320312 0-35.480469-13.769531-39.191406-32h39.191406c19.320312 0 35.480469 13.769531 39.191406 32zm16 64c-10.433594 0-19.328125-6.6875-22.632812-16h22.632812c10.433594 0 19.328125 6.6875 22.632812 16zm-192-40h39.191406c-3.710937 18.230469-19.878906 32-39.191406 32h-39.191406c3.710937-18.230469 19.871094-32 39.191406-32zm0-80h39.191406c-3.710937 18.230469-19.871094 32-39.191406 32h-39.191406c3.710937-18.230469 19.871094-32 39.191406-32zm-96 56c-19.320312 0-35.480469-13.769531-39.191406-32h39.191406c19.320312 0 35.480469 13.769531 39.191406 32zm16 64c-10.433594 0-19.328125-6.6875-22.632812-16h22.632812c10.433594 0 19.328125 6.6875 22.632812 16zm216 136c0-48.519531 39.480469-88 88-88s88 39.480469 88 88c0 45.824219-35.214844 83.535156-80 87.59375v-31.59375h24v-32c0-17.648438-14.351562-32-32-32-8.824219 0-16-7.175781-16-16v-16h16c8.824219 0 16 7.175781 16 16h16c0-14.863281-10.238281-27.289062-24-30.863281v-17.136719h-16v16h-24v32c0 17.648438 14.351562 32 32 32 8.824219 0 16 7.175781 16 16v16h-16c-8.824219 0-16-7.175781-16-16h-16c0 14.863281 10.238281 27.289062 24 30.863281v5.585938c-4.726562-2.753907-10.144531-4.449219-16-4.449219h-37.257812c-2.277344 0-4.542969-.160156-6.796876-.34375-12.839843-15.6875-19.945312-35.296875-19.945312-55.65625zm-256-24c0-39.695312 32.304688-72 72-72s72 32.304688 72 72-32.304688 72-72 72-72-32.304688-72-72zm96 232h-16v-96h-16v96h-16v-16h-16v16h-16v-144h16v112h16v-112h48zm346.054688-125.367188-48.285157 48.289063c-13.601562 13.597656-31.679687 21.085937-50.914062 21.085937h-157.214844c-18.449219 0-36.136719 5.664063-51.152344 16.390626l-22.488281 16.058593v-100.335937l28.839844-20.601563c23.441406-16.734375 54.746094-20.136719 81.230468-8.785156l21.546876 9.234375c12.429687 5.328125 25.597656 8.03125 39.117187 8.03125h37.265625c8.824219 0 16 7.175781 16 16s-7.175781 16-16 16h-136v16h136c11.863281 0 22.121094-6.566406 27.648438-16.183594 37.855468-1.320312 70.65625-22.855468 87.742187-54.222656 7.433594 3.054688 12.609375 10.308594 12.609375 18.695312 0 5.414063-2.113281 10.511719-5.945312 14.34375zm0 0"/><path d="m96 352h16v16h-16zm0 0"/></svg>