<svg height="496pt" viewBox="0 0 496 496" width="496pt" xmlns="http://www.w3.org/2000/svg"><path d="m136 440h48v48h-160v-48zm0 0" fill="#fcd770"/><path d="m88 392h80v48h-160v-48zm0 0" fill="#ffeaa7"/><path d="m168 312c0 44.183594-35.816406 80-80 80s-80-35.816406-80-80 35.816406-80 80-80 80 35.816406 80 80zm0 0" fill="#fcd770"/><path d="m400 456v16c0 8.800781-7.199219 16-16 16h-64c-8.800781 0-16-7.199219-16-16v-16zm0 0" fill="#969faa"/><path d="m416 408v32c0 8.800781-7.199219 16-16 16h-96c-8.800781 0-16-7.199219-16-16v-32zm0 0" fill="#aab2bd"/><path d="m423.601562 172.398438h.078126c5.519531 3.441406 10.71875 7.203124 15.601562 11.441406 29.757812 24.878906 48.71875 62.320312 48.71875 104.160156 0 52-29.199219 97.121094-72 120h-128c-47.441406-25.359375-78.160156-78.078125-70.960938-137.121094 5.039063-41.359375 29.28125-77.277344 63.28125-98.480468l.078126.082031.027343-.007813c46.445313-15.59375 96.710938-15.625 143.175781-.074218zm0 0" fill="#ff826e"/><path d="m432.960938 279.039062c4.320312 4.320313 7.039062 10.320313 7.039062 16.960938 0 13.28125-10.71875 24-24 24h-128c-6.640625 0-12.640625-2.71875-16.960938-7.039062-4.320312-4.320313-7.039062-10.320313-7.039062-16.960938 0-13.28125 10.71875-24 24-24h16.078125c13.363281 10.078125 29.921875 16 47.921875 16s34.558594-5.921875 47.921875-16h16.078125c6.640625 0 12.640625 2.71875 16.960938 7.039062zm0 0" fill="#e6e9ed"/><path d="m352 136-1.441406-8h1.441406c31.359375 0 58.558594 18.078125 71.601562 44.398438 5.359376 10.722656 8.398438 22.800781 8.398438 35.601562 0 26.160156-12.640625 49.441406-32.078125 64-13.363281 10.078125-29.921875 16-47.921875 16s-34.558594-5.921875-47.921875-16c-19.4375-14.558594-32.078125-37.839844-32.078125-64 0-12.800781 2.960938-24.800781 8.398438-35.519531 2.082031-4.402344 4.640624-8.558594 7.601562-12.402344.878906-.078125 1.839844-.078125 2.71875-.078125h37.28125c13.28125 0 24-10.71875 24-24zm0 0" fill="#fcd770"/><path d="m8 8h64v160h-64zm0 0" fill="#d3a06c"/><path d="m104 144v24h-32v-160h32zm0 0" fill="#e6e9ed"/><path d="m439.359375 183.761719-.078125.078125c-4.882812-4.238282-10.082031-8-15.601562-11.441406h-.078126c-13.042968-26.320313-40.242187-44.398438-71.601562-44.398438-.480469 0-.960938 0-1.359375 0h-.082031l1.441406 8c0 13.28125-10.71875 24-24 24h-37.28125c-.878906 0-1.839844 0-2.71875.078125-11.359375.320313-22.640625 2.722656-33.199219 7.28125l-20.402343 8.71875c-12.160157 5.203125-25.199219 7.921875-38.398438 7.921875-18.320312 0-36.238281-5.121094-51.761719-14.800781l-40.238281-25.199219v-120l40.238281 25.199219c15.523438 9.679687 33.441407 14.800781 51.761719 14.800781h154.878906c21.199219 0 41.519532 8.398438 56.5625 23.441406l48.238282 48.238282c5.359374 5.359374 8.320312 12.558593 8.320312 20 0 14.398437-10.71875 26.320312-24.640625 28.082031zm0 0" fill="#f0d0b4"/><path d="m392 200h16v16h-16zm0 0"/><path d="m296 200h16v16h-16zm0 0"/><path d="m454.359375 186.710938c10.59375-6.398438 17.640625-17.949219 17.640625-31 0-9.6875-3.777344-18.808594-10.632812-25.65625l-48.289063-48.285157c-16.613281-16.617187-38.710937-25.769531-62.214844-25.769531h-154.886719c-16.800781 0-33.214843-4.703125-47.464843-13.617188l-36.511719-22.816406v-19.566406h-112v176h112v-17.566406l28.03125 17.519531c16.800781 10.503906 36.136719 16.046875 55.945312 16.046875 14.375 0 28.359376-2.871094 41.574219-8.535156l20.371094-8.730469c3.207031-1.375 6.492187-2.46875 9.8125-3.421875-32.167969 23.375-53.855469 59.527344-58.628906 98.597656-7.113281 58.25 20.613281 113.753906 70.894531 142.777344v27.3125c0 10.414062 6.710938 19.214844 16 22.527344v9.472656c0 13.230469 10.769531 24 24 24h64c13.230469 0 24-10.769531 24-24v-9.472656c9.289062-3.3125 16-12.113282 16-22.527344v-27.3125c44.535156-25.742188 72-73.078125 72-124.6875 0-38.65625-15.175781-74.664062-41.640625-101.289062zm-358.359375-26.710938h-16v-112h-16v112h-48v-144h16v96h16v-96h16v16h16v-16h16zm155.625.03125-20.367188 8.730469c-26.648437 11.414062-58.144531 8.992187-82.738281-6.378907l-36.519531-22.816406v-101.132812l28.03125 17.519531c16.800781 10.503906 36.136719 16.046875 55.945312 16.046875h154.886719c19.234375 0 37.3125 7.488281 50.914063 21.089844l48.285156 48.285156c3.824219 3.824219 5.9375 8.921875 5.9375 14.335938 0 9.105468-6.097656 16.953124-14.59375 19.433593-3.726562-2.945312-7.628906-5.730469-11.695312-8.335937-14.253907-26.800782-41.96875-45.304688-74.0625-46.632813-5.527344-9.609375-15.785157-16.175781-27.648438-16.175781h-136v16h136c8.824219 0 16 7.175781 16 16s-7.175781 16-16 16h-37.257812c-13.527344 0-26.6875 2.703125-39.117188 8.03125zm49.933594 119.96875c14.296875 10.046875 31.671875 16 50.441406 16s36.136719-5.953125 50.441406-16h13.558594c8.824219 0 16 7.175781 16 16s-7.175781 16-16 16h-128c-8.824219 0-16-7.175781-16-16s7.175781-16 16-16zm50.441406 0c-39.695312 0-72-32.304688-72-72 0-14.414062 4.230469-28.152344 12.183594-40h35.816406c5.855469 0 11.273438-1.695312 16-4.449219v4.449219h-16v24c0 13.230469 10.769531 24 24 24 4.40625 0 8 3.59375 8 8v8h-8c-4.40625 0-8-3.59375-8-8h-16c0 10.414062 6.710938 19.214844 16 22.527344v17.472656h16v-16h16v-24c0-13.230469-10.769531-24-24-24-4.40625 0-8-3.59375-8-8v-8h8c4.40625 0 8 3.59375 8 8h16c0-10.414062-6.710938-19.214844-16-22.527344v-33c35.945312 4 64 34.535156 64 71.527344 0 39.695312-32.304688 72-72 72zm32 200h-64c-4.40625 0-8-3.585938-8-8v-8h80v8c0 4.414062-3.59375 8-8 8zm16-32h-96c-4.40625 0-8-3.585938-8-8v-24h112v24c0 4.414062-3.59375 8-8 8zm13.832031-48h-123.648437c-46.046875-25.457031-71.625-75.519531-65.191406-128.160156 3.609374-29.511719 18.207031-57.078125 40.070312-77.480469-.695312 4.480469-1.0625 9.03125-1.0625 13.640625 0 21.433594 7.71875 41.070312 20.496094 56.351562-15.984375 1.777344-28.496094 15.199219-28.496094 31.648438 0 17.648438 14.351562 32 32 32h128c17.648438 0 32-14.351562 32-32 0-16.449219-12.511719-29.871094-28.496094-31.648438 12.777344-15.28125 20.496094-34.917968 20.496094-56.351562 0-4.832031-.496094-9.535156-1.246094-14.152344 26.15625 23.992188 41.246094 57.769532 41.246094 94.152344 0 46.6875-25.320312 89.40625-66.167969 112zm0 0"/><path d="m32 128h16v16h-16zm0 0"/><path d="m176 384h-37.558594c22.671875-15.9375 37.558594-42.238281 37.558594-72 0-48.519531-39.480469-88-88-88s-88 39.480469-88 88c0 29.761719 14.886719 56.0625 37.558594 72h-37.558594v64h16v48h176v-64h-16zm-160-72c0-39.703125 32.304688-72 72-72s72 32.296875 72 72-32.304688 72-72 72-72-32.296875-72-72zm0 88h144v32h-16v-16h-16v16h-16v-16h-16v16h-16v-16h-16v16h-16v-16h-16v16h-16zm160 80h-16v-16h-16v16h-16v-16h-16v16h-16v-16h-16v16h-16v-16h-16v16h-16v-32h144zm0 0"/><path d="m88 288c4.40625 0 8 3.585938 8 8h16c0-10.414062-6.710938-19.214844-16-22.527344v-17.472656h-16v16h-16v24c0 13.230469 10.769531 24 24 24 4.40625 0 8 3.585938 8 8v8h-8c-4.40625 0-8-3.585938-8-8h-16c0 10.414062 6.710938 19.214844 16 22.527344v17.472656h16v-16h16v-24c0-13.230469-10.769531-24-24-24-4.40625 0-8-3.585938-8-8v-8zm0 0"/><path d="m128 304h16v16h-16zm0 0"/><path d="m32 304h16v16h-16zm0 0"/></svg>