<?xml version="1.0" encoding="UTF-8"?>
<!-- Generator: Adobe Illustrator 19.2.0, SVG Export Plug-In . SVG Version: 6.00 Build 0)  -->
<!DOCTYPE svg PUBLIC "-//W3C//DTD SVG 1.1//EN" "http://www.w3.org/Graphics/SVG/1.1/DTD/svg11.dtd">
<svg xmlns="http://www.w3.org/2000/svg" xmlns:xlink="http://www.w3.org/1999/xlink" xmlns:dc="http://purl.org/dc/elements/1.1/" xmlns:cc="http://creativecommons.org/ns#" xmlns:rdf="http://www.w3.org/1999/02/22-rdf-syntax-ns#" version="1.1" id="DESIGNS" x="0px" y="0px" width="32px" height="32px" viewBox="0 0 32 32" style="enable-background:new 0 0 32 32;" xml:space="preserve">
<title property="dc:title">to code</title><desc property="dc:description">An icon for "code" from the Hatch series on to [icon]. Downloaded from http://www.toicon.com/icons/hatch_code by 92.14.60.126 on 2019-02-03. Licensed CC-BY, see http://toicon.com/license/ for details.</desc>
<g>
	<path class="hatch_twee" d="M9.411,22l-1,1H6.996l1-1H9.411z M3.996,22l-1,1h1.414l1-1H3.996z M2.002,7.995l-1,1v1.414l1-1V7.995z    M2,20.902v-0.904l-1.002,1v1.414l1.07-1.07C2.009,21.215,2,21.051,2,20.902z M2,5.024C2,4.471,2.471,4,3.024,4h0.381l1-1H2.991   L1,4.988v1.414l1-1V5.024z M2,11.996l-1,1v1.414l1-1V11.996z M7.411,4l1-1H6.996l-1,1H7.411z M27.411,4l1-1h-1.414l-1,1H27.411z    M19.411,4l1-1h-1.414l-1,1H19.411z M23.411,4l1-1h-1.414l-1,1H23.411z M11.411,4l1-1h-1.414l-1,1H11.411z M15.411,4l1-1h-1.414   l-1,1H15.411z M2,15.996l-1,1v1.414l1-1V15.996z M29.997,17.413l1-1v-1.414l-1,1V17.413z M23.996,22l-1,1h1.414l1-1H23.996z    M30,13.411l1-1v-1.414l-1,1V13.411z M30,9.411l1-1V6.996l-1,1V9.411z M29.704,4.292C29.857,4.468,30,4.737,30,4.988v0.422l1-1   V2.996L29.704,4.292z M17.411,22h-1.414l-1,1h1.414L17.411,22z M14,25.419L15.411,24H14V25.419z M11.996,22l-1,1h1.414l1-1H11.996z    M19.996,22l-1,1h1.414l1-1H19.996z M18.008,29l0-1.012L16.996,29H18.008z M14.002,29.012l0.399-0.003l3.601-3.601v-1.414l-4,4   V29.012z M29,22h-0.1h-0.904l-1,1h1.414l1.285-1.285C29.516,21.89,29.271,22,29,22z M30,19.997V21c0,0.271-0.11,0.516-0.285,0.696   l1.294-1.294v-1.414L30,19.997z" style="fill: #FFC5BB;"/>
	<path class="hatch_een" d="M31,2H1C0.448,2,0,2.448,0,3v20c0,0.552,0.448,1,1,1h12v5H9.5C9.224,29,9,29.224,9,29.5S9.224,30,9.5,30   h13c0.276,0,0.5-0.224,0.5-0.5S22.776,29,22.5,29H19v-5h12c0.552,0,1-0.448,1-1V3C32,2.448,31.552,2,31,2z M18,29h-4v-5h4V29z    M31,23H1V3h30V23z M10.5,8h-5C5.224,8,5,7.776,5,7.5S5.224,7,5.5,7h5C10.776,7,11,7.224,11,7.5S10.776,8,10.5,8z M14.5,12h-6   C8.224,12,8,11.776,8,11.5S8.224,11,8.5,11h6c0.276,0,0.5,0.224,0.5,0.5S14.776,12,14.5,12z M10.5,15h-5C5.224,15,5,14.776,5,14.5   S5.224,14,5.5,14h5c0.276,0,0.5,0.224,0.5,0.5S10.776,15,10.5,15z M17.5,17h-12C5.224,17,5,16.776,5,16.5S5.224,16,5.5,16h12   c0.276,0,0.5,0.224,0.5,0.5S17.776,17,17.5,17z M20.5,10h-12C8.224,10,8,9.776,8,9.5S8.224,9,8.5,9h12C20.776,9,21,9.224,21,9.5   S20.776,10,20.5,10z M29,5v16H3V5H29z M29,4H3C2.448,4,2,4.448,2,5v16c0,0.552,0.448,1,1,1h26c0.552,0,1-0.448,1-1V5   C30,4.448,29.552,4,29,4L29,4z" style="fill: #265AA5;"/>
</g>
<metadata><work rdf:about=""><format>image/svg+xml</format><type rdf:resource="http://purl.org/dc/dcmitype/StillImage"/><license rdf:resource="http://creativecommons.org/licenses/by/4.0/"/><attributionname>Carol Liao</attributionname><attributionurl>http://www.toicon.com/icons/hatch_code</attributionurl></work></metadata></svg>
