<?xml version="1.0" encoding="UTF-8"?>
<!-- Generator: Adobe Illustrator 19.2.0, SVG Export Plug-In . SVG Version: 6.00 Build 0)  -->
<!DOCTYPE svg PUBLIC "-//W3C//DTD SVG 1.1//EN" "http://www.w3.org/Graphics/SVG/1.1/DTD/svg11.dtd">
<svg xmlns="http://www.w3.org/2000/svg" xmlns:xlink="http://www.w3.org/1999/xlink" xmlns:dc="http://purl.org/dc/elements/1.1/" xmlns:cc="http://creativecommons.org/ns#" xmlns:rdf="http://www.w3.org/1999/02/22-rdf-syntax-ns#" version="1.1" id="DESIGNS" x="0px" y="0px" width="32px" height="32px" viewBox="0 0 32 32" style="enable-background:new 0 0 32 32;" xml:space="preserve">
<title property="dc:title">to network</title><desc property="dc:description">An icon for "network" from the Hatch series on to [icon]. Downloaded from http://www.toicon.com/icons/hatch_network by 92.14.60.126 on 2019-02-03. Licensed CC-BY, see http://toicon.com/license/ for details.</desc>
<g>
	<path class="hatch_twee" d="M11.017,13.69L4.69,20.017c-0.262-0.209-0.5-0.443-0.709-0.705l6.332-6.332   C10.574,13.19,10.808,13.428,11.017,13.69z M7.5,12c-0.079,0-0.133,0-0.211,0.004l-4.283,4.283C3.002,16.365,3,16.421,3,16.5   c0,0.369,0.044,0.735,0.128,1.079l5.457-5.457C8.241,12.038,7.869,12,7.5,12z M12,16.5c0-0.369-0.047-0.733-0.13-1.077l-5.45,5.45   C6.763,20.957,7.131,21,7.5,21c0.079,0,0.133,0,0.211-0.004l4.286-4.286C12.001,16.632,12,16.579,12,16.5z M21.689,11.018   l6.331-6.331c-0.206-0.258-0.44-0.496-0.706-0.708l-6.332,6.332C21.188,10.569,21.424,10.806,21.689,11.018z M24.711,11.996   l4.29-4.29c0.022-0.44-0.022-0.865-0.126-1.288l-5.454,5.454C23.845,11.976,24.284,12.018,24.711,11.996z M20.079,24.628   l3.545-3.545c-0.458,0.095-0.943,0.273-1.371,0.52C21.094,22.271,20.33,23.413,20.079,24.628z M24.294,2.999l-4.291,4.29   c-0.022,0.44,0.023,0.864,0.127,1.288l5.45-5.45C25.156,3.024,24.72,2.978,24.294,2.999z M20.262,27.031   c0.089,0.248,0.205,0.482,0.341,0.718c0.043,0.075,0.09,0.147,0.136,0.219l6.238-6.238c-0.298-0.194-0.615-0.349-0.947-0.467   L20.262,27.031z M25.375,29.918c0.46-0.095,0.945-0.271,1.375-0.519c1.161-0.669,1.907-1.767,2.162-3.017L25.375,29.918z    M22.967,29.74l5.77-5.77c-0.089-0.247-0.202-0.482-0.338-0.717c-0.044-0.076-0.082-0.157-0.129-0.23l-6.25,6.25   C22.317,29.468,22.635,29.622,22.967,29.74z" style="fill: #FFC5BB;"/>
	<path class="hatch_een" d="M21.753,20.737c-0.7,0.404-1.268,0.945-1.71,1.564l-7.277-4.22C12.917,17.579,13,17.049,13,16.5   c0-0.547-0.083-1.074-0.232-1.573l7.275-4.228c0.442,0.618,1.01,1.16,1.71,1.564c2.627,1.515,5.997,0.61,7.512-2.017   c1.515-2.627,0.61-5.997-2.017-7.512c-2.627-1.515-5.997-0.61-7.512,2.017c-0.932,1.617-0.942,3.513-0.203,5.087l-7.161,4.12   C11.453,12.202,9.615,11,7.5,11C4.467,11,2,13.467,2,16.5S4.467,22,7.5,22c2.102,0,3.93-1.186,4.856-2.923l7.177,4.086   c-0.737,1.574-0.728,3.469,0.204,5.085c1.515,2.627,4.885,3.532,7.512,2.017s3.532-4.885,2.017-7.512S24.381,19.221,21.753,20.737z    M20.603,5.251c1.242-2.153,3.993-2.892,6.146-1.65s2.892,3.993,1.65,6.146c-1.242,2.153-3.993,2.892-6.146,1.65   S19.361,7.404,20.603,5.251z M7.5,21C5.015,21,3,18.985,3,16.5S5.015,12,7.5,12s4.5,2.015,4.5,4.5S9.985,21,7.5,21z M26.749,29.399   c-2.153,1.242-4.905,0.503-6.146-1.65c-1.242-2.153-0.503-4.905,1.65-6.146s4.905-0.503,6.146,1.65   C29.641,25.406,28.902,28.158,26.749,29.399z" style="fill: #265AA5;"/>
</g>
<metadata><work rdf:about=""><format>image/svg+xml</format><type rdf:resource="http://purl.org/dc/dcmitype/StillImage"/><license rdf:resource="http://creativecommons.org/licenses/by/4.0/"/><attributionname>Carol Liao</attributionname><attributionurl>http://www.toicon.com/icons/hatch_network</attributionurl></work></metadata></svg>
