<?xml version="1.0" encoding="UTF-8"?>
<!-- Generator: Adobe Illustrator 19.1.0, SVG Export Plug-In . SVG Version: 6.00 Build 0)  -->
<svg xmlns="http://www.w3.org/2000/svg" xmlns:xlink="http://www.w3.org/1999/xlink" xmlns:dc="http://purl.org/dc/elements/1.1/" xmlns:cc="http://creativecommons.org/ns#" xmlns:rdf="http://www.w3.org/1999/02/22-rdf-syntax-ns#" version="1.1" id="DESIGNS" x="0px" y="0px" width="32px" height="32px" viewBox="0 0 32 32" style="enable-background:new 0 0 32 32;" xml:space="preserve">
<title property="dc:title">to add</title><desc property="dc:description">An icon for "add" from the Pictogram series on to [icon]. Downloaded from http://www.toicon.com/icons/pictogram_add by 92.14.60.126 on 2019-02-03. Licensed CC-BY, see http://toicon.com/license/ for details.</desc>
<g>
	<circle class="pictogram_een" cx="16" cy="16" r="16" style="fill: #F4D6B0;"/>
	<path class="pictogram_twee" d="M4,16c0,6.627,5.373,12,12,12V4C9.373,4,4,9.373,4,16z" style="fill: #F8AD89;"/>
	<path class="pictogram_vijf" d="M16,0v4c6.627,0,12,5.373,12,12c0,6.627-5.373,12-12,12v4c8.837,0,16-7.163,16-16S24.837,0,16,0z" style="fill: #01A59C;"/>
	<path class="pictogram_vijf" d="M16,0v4c6.627,0,12,5.373,12,12c0,6.627-5.373,12-12,12v4c8.837,0,16-7.163,16-16S24.837,0,16,0z" style="fill: #01A59C;"/>
	<path class="pictogram_zes" d="M16,28v4C7.163,32,0,24.837,0,16S7.163,0,16,0v4C9.373,4,4,9.373,4,16C4,22.627,9.373,28,16,28z    M22,14h-4.5V9.5C17.5,8.672,16.828,8,16,8s-1.5,0.672-1.5,1.5V14H10c-0.828,0-1.5,0.672-1.5,1.5S9.172,17,10,17h4.5v4.5   c0,0.828,0.672,1.5,1.5,1.5s1.5-0.672,1.5-1.5V17H22c0.828,0,1.5-0.672,1.5-1.5S22.828,14,22,14z" style="fill: #0C6667;"/>
</g>
<metadata><work rdf:about=""><format>image/svg+xml</format><type rdf:resource="http://purl.org/dc/dcmitype/StillImage"/><license rdf:resource="http://creativecommons.org/licenses/by/4.0/"/><attributionname>Jo Szczepanska</attributionname><attributionurl>http://www.toicon.com/icons/pictogram_add</attributionurl></work></metadata></svg>
