<?xml version="1.0" encoding="UTF-8" standalone="no"?>
<!-- Created with Inkscape (http://www.inkscape.org/) -->

<svg
   xmlns:dc="http://purl.org/dc/elements/1.1/"
   xmlns:cc="http://creativecommons.org/ns#"
   xmlns:rdf="http://www.w3.org/1999/02/22-rdf-syntax-ns#"
   xmlns:svg="http://www.w3.org/2000/svg"
   xmlns="http://www.w3.org/2000/svg"
   xmlns:sodipodi="http://sodipodi.sourceforge.net/DTD/sodipodi-0.dtd"
   xmlns:inkscape="http://www.inkscape.org/namespaces/inkscape"
   width="368.70508"
   height="208.84784"
   viewBox="0 0 97.553215 55.257656"
   version="1.1"
   id="svg8"
   inkscape:version="0.92.3 (2405546, 2018-03-11)"
   sodipodi:docname="difficulty-beginner.svg">
  <defs
     id="defs2" />
  <sodipodi:namedview
     id="base"
     pagecolor="#ffffff"
     bordercolor="#666666"
     borderopacity="1.0"
     inkscape:pageopacity="0.0"
     inkscape:pageshadow="2"
     inkscape:zoom="0.98994949"
     inkscape:cx="223.42412"
     inkscape:cy="130.56815"
     inkscape:document-units="mm"
     inkscape:current-layer="layer1"
     showgrid="false"
     inkscape:window-width="1920"
     inkscape:window-height="1017"
     inkscape:window-x="1912"
     inkscape:window-y="-8"
     inkscape:window-maximized="1"
     showguides="true"
     fit-margin-top="0"
     fit-margin-left="0"
     fit-margin-right="0"
     fit-margin-bottom="0"
     units="px" />
  <metadata
     id="metadata5">
    <rdf:RDF>
      <cc:Work
         rdf:about="">
        <dc:format>image/svg+xml</dc:format>
        <dc:type
           rdf:resource="http://purl.org/dc/dcmitype/StillImage" />
        <dc:title></dc:title>
      </cc:Work>
    </rdf:RDF>
  </metadata>
  <g
     inkscape:label="Calque 1"
     inkscape:groupmode="layer"
     id="layer1"
     transform="translate(-51.449463,-51.045311)">
    <path
       style="opacity:1;fill:#ff7d00;fill-opacity:1;stroke:none;stroke-width:0.10260814;stroke-linejoin:round;stroke-miterlimit:4;stroke-dasharray:none;stroke-opacity:0.81632655"
       d="m 99.100802,53.420504 a 45.13867,43.957496 0 0 0 -21.504113,5.87716 45.13867,43.957496 0 0 0 -7.024894,4.949053 L 100.08937,97.226098 129.67,64.12631 a 45.13867,43.957496 0 0 0 -6.93447,-4.828646 45.13867,43.957496 0 0 0 -23.634212,-5.87716 45.13867,43.957496 0 0 1 -5.16e-4,0 z"
       id="path870"
       inkscape:connector-curvature="0" />
    <path
       inkscape:connector-curvature="0"
       style="opacity:1;fill:#eb2500;fill-opacity:1;stroke:none;stroke-width:0.15229908;stroke-linejoin:round;stroke-miterlimit:4;stroke-dasharray:none;stroke-opacity:0.81632655"
       d="M 145.3042,97.365624 A 45.073663,45.593381 41.786138 0 0 130.44079,63.262734 L 99.933372,97.400044 Z"
       id="path835-2-2" />
    <path
       inkscape:connector-curvature="0"
       style="opacity:1;fill:#00ff00;fill-opacity:1;stroke:none;stroke-width:0.15229908;stroke-linejoin:round;stroke-miterlimit:4;stroke-dasharray:none;stroke-opacity:0.81632655"
       d="M 70.285524,63.927874 A 45.593381,45.073663 0 0 0 54.761406,97.735114 H 100.54414 Z"
       id="path835-6" />
    <path
       inkscape:connector-curvature="0"
       style="opacity:1;fill:#2f2500;fill-opacity:1;stroke:none;stroke-width:0.1;stroke-linejoin:round;stroke-miterlimit:4;stroke-dasharray:none;stroke-opacity:0.81632655"
       d="m 99.075502,51.058894 a 48.776689,48.776689 0 0 0 -23.237864,6.52105 48.776689,48.776689 0 0 0 -24.388175,42.24187 h 97.553217 a 48.776689,48.776689 0 0 0 -24.38817,-42.24187 48.776689,48.776689 0 0 0 -25.539008,-6.52105 z m 0.0253,2.36161 a 45.138671,43.957497 0 0 1 23.634208,5.87716 45.138671,43.957497 0 0 1 22.56917,38.06796 H 55.027024 a 45.138671,43.957497 0 0 1 22.569165,-38.06796 45.138671,43.957497 0 0 1 21.504633,-5.87716 z"
       id="path815-6" />
    <path
       style="opacity:1;fill:#000000;fill-opacity:1;stroke:none;stroke-width:0.08569405;stroke-linejoin:round;stroke-miterlimit:4;stroke-dasharray:none;stroke-opacity:0.81632655"
       d="m 106.51447,101.66773 a 7.4436079,7.9639917 25.358093 0 0 -0.58302,-8.162726 7.4436079,7.9639917 25.358093 0 0 -7.330783,-2.755447 l -36.072242,-9.933897 30.62593,21.6995 0.0093,-0.0196 a 7.4436079,7.9639917 25.358093 0 0 0.453969,0.7596 7.4436079,7.9639917 25.358093 0 0 10.445256,1.43673 l 0.20554,-0.16281 a 7.4436079,7.9639917 25.358093 0 0 2.24606,-2.86135 z"
       id="path919"
       inkscape:connector-curvature="0"
       inkscape:transform-center-x="15.169459"
       inkscape:transform-center-y="-4.9665042" />
  </g>
</svg>
